<?xml version="1.0" encoding="UTF-8"?>
<svg id="Layer_1" data-name="Layer 1" xmlns="http://www.w3.org/2000/svg" viewBox="0 0 1200 1200">
  <path d="M630,102c101.69,5.42,201.58,44.51,280.57,107.42,162,129.01,228.71,351.89,162.09,550.74-63.07,188.25-242.55,328.7-442.66,337.84V102ZM743,245v708.5c1.48,2.23,2.98,1.4,5.03,1.06,5.86-.97,35.45-16.95,42.56-20.94,114.36-64.18,190.02-193.34,193.46-325.07,4.07-155.89-94.9-309.66-241.05-363.55Z"/>
  <path d="M570,102v114c-22.01,3.18-44.66,5.76-66.23,11.27-219.65,56.06-342.01,296.36-262.64,509.91,50.62,136.19,184.03,234.84,328.88,246.83v114c-101.59-5.41-200.93-44.29-280.21-107-158.73-125.58-226.23-342.43-166.74-538.26,58.99-194.17,242.71-341.78,446.95-350.73Z"/>
</svg>